<?xml version="1.0" standalone="no"?>
<!DOCTYPE svg PUBLIC "-//W3C//DTD SVG 20010904//EN"
 "http://www.w3.org/TR/2001/REC-SVG-20010904/DTD/svg10.dtd">
<svg version="1.0" xmlns="http://www.w3.org/2000/svg"
 width="817.000000pt" height="817.000000pt" viewBox="0 0 817.000000 817.000000"
 preserveAspectRatio="xMidYMid meet">

<g transform="translate(0.000000,817.000000) scale(0.100000,-0.100000)"
fill="#000000" stroke="none">
<path d="M1 8063 l0 -108 21 55 c14 35 39 73 74 107 l53 53 -75 0 -74 0 1
-107z"/>
<path d="M8092 8149 c15 -11 39 -35 53 -52 l25 -32 0 53 0 52 -52 0 -53 -1 27
-20z"/>
<path d="M2166 6854 c-3 -9 -6 -129 -7 -267 0 -139 -4 -272 -8 -297 -8 -42 -9
-43 -10 -11 0 19 -3 32 -6 29 -9 -8 -36 -261 -30 -279 3 -10 8 -28 10 -41 10
-51 34 -58 206 -59 87 -1 165 -2 172 -3 8 -1 13 -33 15 -113 l3 -113 -729 0
c-508 0 -739 -3 -761 -11 -50 -17 -61 -51 -61 -184 0 -133 11 -166 61 -184 46
-16 6482 -16 6528 0 50 17 61 51 61 184 0 133 -11 167 -61 184 -22 8 -256 11
-771 11 l-739 0 3 113 3 112 177 2 c145 2 182 5 203 19 14 9 22 20 19 25 -3 5
0 9 5 9 12 0 13 172 1 285 l-7 70 -2 -60 c-2 -54 -3 -57 -14 -35 -7 16 -12
124 -14 305 -2 154 -6 290 -8 303 l-5 22 -2114 0 c-1918 0 -2114 -1 -2120 -16z
m1284 -244 c62 -18 64 -22 41 -69 -12 -22 -22 -41 -24 -41 -1 0 -20 7 -42 15
-72 26 -155 15 -155 -20 0 -9 21 -20 58 -30 140 -38 162 -46 183 -73 17 -21
20 -36 16 -72 -9 -81 -78 -120 -213 -120 -70 0 -168 22 -179 40 -3 5 3 27 14
48 l20 39 53 -18 c63 -22 137 -24 163 -5 31 22 5 41 -85 60 -131 29 -181 77
-160 155 10 40 42 70 91 90 32 13 175 13 219 1z m505 -40 l0 -45 -65 -3 c-36
-2 -68 -8 -72 -15 -4 -7 -8 -79 -8 -160 l0 -148 -62 3 -63 3 -3 158 -3 157
-69 0 -70 0 0 50 0 50 208 -2 207 -3 0 -45z m387 34 c56 -19 125 -85 138 -134
23 -83 5 -144 -59 -202 -57 -51 -104 -68 -191 -68 -83 0 -131 16 -181 59 -129
109 -91 284 76 348 44 17 164 16 217 -3z m545 -12 c83 -43 110 -111 73 -187
-12 -25 -25 -45 -28 -45 -4 0 -15 -7 -26 -15 -17 -13 -16 -17 28 -70 25 -31
46 -60 46 -65 0 -10 -122 -12 -135 -2 -5 4 -27 28 -48 55 -32 39 -44 47 -72
47 -34 0 -34 0 -37 -52 l-3 -53 -53 -3 c-31 -2 -60 2 -68 9 -11 9 -14 49 -14
194 0 101 3 191 7 200 5 16 21 17 147 13 119 -4 147 -8 183 -26z m521 -24 l3
-48 -115 0 -116 0 0 -30 0 -30 100 0 100 0 0 -45 0 -45 -100 0 -100 0 0 -35 0
-35 120 0 120 0 0 -50 0 -50 -187 2 -188 3 -3 195 c-1 107 0 200 3 207 3 11
44 13 182 11 l178 -3 3 -47z m542 -753 l0 -115 -1675 0 -1675 0 0 115 0 115
1675 0 1675 0 0 -115z"/>
<path d="M4158 6503 c-32 -20 -48 -52 -48 -99 0 -28 8 -44 34 -70 29 -29 41
-34 81 -34 100 0 153 78 113 165 -24 52 -123 73 -180 38z"/>
<path d="M4690 6465 l0 -55 58 0 c64 0 92 18 92 58 0 32 -37 52 -97 52 l-53 0
0 -55z"/>
<path d="M2040 5260 c-2 -22 -4 -27 -7 -14 -3 17 -12 21 -53 23 -42 1 -50 -2
-50 -16 0 -11 -3 -14 -8 -7 -4 6 -60 14 -135 18 -112 6 -128 5 -134 -9 -4 -12
-8 -13 -13 -5 -14 23 -21 -312 -14 -682 l7 -378 -414 -2 c-385 -3 -414 -4
-417 -20 -3 -16 9 -18 137 -18 l141 0 0 -143 0 -144 -70 -12 c-152 -27 -280
-126 -347 -267 -33 -69 -38 -89 -41 -172 -5 -116 15 -198 68 -280 69 -107 162
-174 287 -206 322 -84 634 198 583 526 -31 204 -191 366 -393 400 l-68 11 3
141 3 141 263 3 262 2 0 -1010 0 -1010 -92 0 c-51 0 -117 -3 -145 -6 l-53 -7
0 -276 c1 -292 0 -290 50 -324 19 -13 47 -17 132 -17 l108 0 0 -125 0 -125
-180 0 c-279 0 -270 12 -270 -335 l0 -245 3099 0 3100 0 -2 249 c-3 340 5 331
-264 331 l-173 0 0 124 0 124 90 4 c99 5 126 17 168 78 22 33 22 38 20 289
l-3 256 -137 3 -138 3 0 1242 c1 1234 1 1242 20 1205 36 -67 119 -118 195
-118 79 0 164 54 196 124 17 37 19 70 19 325 0 191 -4 297 -12 323 l-12 40
-45 -6 c-132 -16 -181 -18 -181 -7 0 7 -27 11 -80 11 l-79 0 -10 -37 c-5 -21
-11 -166 -14 -323 -3 -164 -10 -296 -16 -312 -17 -45 -80 -106 -126 -124 -31
-11 -63 -15 -105 -12 -80 6 -135 43 -172 117 l-28 55 -1 250 c0 148 -5 280
-12 321 -12 68 -13 70 -42 71 -17 0 -33 -3 -36 -8 -8 -12 -151 -14 -241 -4
-74 8 -77 7 -89 -15 -9 -17 -14 -112 -18 -329 -6 -302 -6 -305 -31 -350 -36
-65 -96 -103 -169 -108 -74 -5 -123 10 -174 57 -70 63 -71 70 -77 409 -4 254
-7 304 -20 312 -12 8 -13 12 -2 19 10 6 8 10 -10 14 -32 9 -99 -3 -91 -16 4
-7 -5 -8 -28 -3 -19 4 -81 10 -138 12 -57 2 -107 6 -111 9 -19 12 -25 -50 -30
-340 -5 -292 -7 -312 -27 -350 -59 -110 -188 -156 -299 -106 -48 22 -101 82
-114 131 -6 19 -11 134 -11 255 -2 249 -10 372 -24 367 -5 -2 -13 7 -18 20 -9
22 -9 22 -17 3 -7 -16 -9 -17 -9 -3 -1 9 -5 19 -9 22 -14 8 -52 -6 -45 -17 4
-6 -4 -8 -23 -3 -16 3 -82 9 -146 13 -90 4 -118 3 -118 -6 0 -7 -7 -19 -15
-27 -13 -13 -15 -61 -15 -309 l0 -293 -28 -53 c-38 -72 -96 -112 -173 -117
-74 -5 -122 11 -176 61 -68 63 -73 89 -74 446 -1 169 -5 295 -9 281 -7 -23 -8
-23 -9 -3 -1 22 -21 44 -21 24 0 -14 -27 -14 -32 -1 -1 5 -13 7 -25 4 -13 -4
-20 -11 -16 -17 4 -6 -4 -8 -23 -4 -16 4 -66 10 -111 13 -64 5 -83 4 -83 -6 0
-8 -4 -9 -12 -3 -7 6 -27 13 -45 16 -31 6 -32 5 -37 -36 -3 -23 -8 -172 -12
-332 -5 -253 -9 -295 -25 -326 -76 -151 -292 -160 -386 -17 l-28 42 -7 295
c-4 163 -10 316 -13 339 -6 40 -8 42 -20 25 -14 -17 -14 -17 -15 7 -1 25 -1
25 -16 -5 -8 -16 -12 -22 -10 -13 7 23 -6 29 -44 22 -22 -5 -28 -9 -18 -15 16
-10 -60 0 -82 11 -20 10 -170 0 -170 -12 0 -5 -9 -4 -20 2 -11 6 -21 9 -22 8
0 -2 -4 -149 -7 -328 l-6 -325 -28 -48 c-59 -100 -186 -136 -293 -82 -28 14
-60 39 -73 55 -47 64 -51 95 -52 389 0 152 -4 296 -8 321 -8 44 -9 45 -11 10z
m-300 -10 c0 -5 -4 -10 -10 -10 -5 0 -10 5 -10 10 0 6 5 10 10 10 6 0 10 -4
10 -10z m3520 0 c0 -5 -4 -10 -10 -10 -5 0 -10 5 -10 10 0 6 5 10 10 10 6 0
10 -4 10 -10z m-537 -1487 c19 -11 42 -38 56 -67 56 -112 10 -343 -102 -519
-39 -61 -35 -77 20 -77 54 0 95 46 144 163 81 195 97 227 114 227 9 0 19 -9
22 -19 5 -19 5 -19 36 0 46 27 112 25 142 -5 49 -49 43 -144 -20 -275 -33 -69
-34 -71 -14 -82 55 -29 131 30 173 136 64 160 174 258 273 242 51 -9 73 -33
73 -80 0 -76 -80 -140 -237 -187 -76 -23 -83 -31 -83 -96 0 -41 39 -81 85 -86
61 -7 123 16 170 62 52 51 85 110 145 259 49 122 71 149 95 118 12 -17 15 -17
44 -3 55 29 149 12 165 -29 16 -42 4 -111 -36 -213 -23 -59 -42 -125 -42 -147
-1 -38 1 -40 32 -43 27 -3 39 3 67 33 19 20 51 65 71 100 24 44 42 65 54 65
32 0 32 -18 -1 -80 -38 -72 -91 -135 -130 -155 -45 -24 -101 -19 -129 10 -20
21 -22 31 -17 82 3 32 24 102 46 158 58 142 54 185 -16 185 -74 0 -153 -102
-238 -309 -30 -74 -55 -136 -55 -138 0 -3 -10 -3 -22 -1 -17 2 -22 9 -21 25
l3 23 -42 -22 c-55 -29 -150 -36 -201 -15 -31 13 -68 55 -80 91 -1 4 -18 -1
-37 -13 -38 -23 -108 -28 -142 -10 -17 9 -25 6 -52 -19 -65 -62 -158 -83 -212
-47 -28 18 -16 38 -99 -165 -33 -79 -48 -105 -62 -105 -10 0 -19 7 -21 16 -2
10 24 83 57 164 l61 147 -39 -7 c-26 -4 -51 -1 -76 9 l-38 16 -44 -41 c-88
-81 -217 -113 -306 -75 -41 17 -81 64 -98 113 -23 72 5 276 50 361 12 22 11
22 -47 22 -156 0 -248 75 -228 184 8 44 67 109 90 100 22 -8 20 -27 -4 -49
-31 -28 -44 -79 -28 -111 25 -52 61 -69 158 -72 l88 -4 39 54 c51 68 112 123
159 143 48 20 108 19 129 -1 51 -52 -71 -168 -224 -214 -50 -15 -59 -22 -78
-61 -36 -71 -66 -203 -61 -273 8 -113 51 -161 146 -160 66 1 122 26 182 81 36
32 40 40 40 83 0 27 3 55 6 64 8 21 41 20 52 -1 8 -14 15 -7 37 38 51 99 77
189 82 285 9 150 -30 199 -151 192 -55 -3 -61 -1 -61 17 0 12 9 22 25 27 39
11 127 1 163 -19z m-3795 -300 c7 -10 12 -48 12 -95 0 -88 -17 -118 -67 -118
-50 0 -63 24 -63 115 0 81 9 107 40 118 23 9 64 -2 78 -20z m140 5 c7 -7 12
-33 12 -60 0 -50 -16 -68 -59 -68 -18 0 -21 -6 -21 -45 0 -38 -3 -45 -20 -45
-19 0 -20 7 -20 115 l0 115 48 0 c26 0 53 -5 60 -12z m142 -3 c0 -10 -11 -15
-35 -15 -32 0 -35 -2 -35 -30 0 -27 3 -30 30 -30 23 0 30 -4 30 -20 0 -16 -7
-20 -30 -20 -27 0 -30 -3 -30 -30 0 -28 3 -30 35 -30 28 0 35 -4 35 -20 0 -18
-7 -20 -55 -20 l-55 0 0 115 0 115 55 0 c42 0 55 -3 55 -15z m101 -45 l17 -55
1 58 c1 50 3 57 21 57 19 0 20 -7 20 -116 0 -114 0 -115 -22 -112 -18 2 -27
16 -44 73 l-22 70 -3 -70 c-3 -57 -7 -70 -21 -73 -16 -3 -18 7 -18 113 l0 116
27 -3 c23 -3 30 -11 44 -58z"/>
<path d="M4465 3664 c-39 -13 -143 -109 -132 -121 8 -7 115 43 154 73 55 42
43 71 -22 48z"/>
<path d="M5005 3399 c-70 -65 -173 -280 -159 -334 12 -49 78 -44 142 11 38 32
40 37 39 87 0 29 2 58 7 65 9 16 43 16 49 0 2 -7 12 2 21 21 20 38 32 127 22
165 -5 22 -12 26 -41 26 -27 0 -45 -9 -80 -41z"/>
<path d="M5461 3404 c-42 -38 -107 -131 -98 -140 9 -10 100 24 158 59 85 51
96 117 19 117 -32 0 -48 -7 -79 -36z"/>
<path d="M857 3443 c-13 -13 -8 -140 6 -152 22 -18 27 -2 27 81 0 58 -3 78
-13 78 -8 0 -17 -3 -20 -7z"/>
<path d="M1004 3437 c-9 -25 0 -62 16 -62 10 0 15 10 15 34 0 36 -21 54 -31
28z"/>
<path d="M1 133 l-1 -133 123 0 122 0 -60 28 c-85 41 -143 107 -171 197 -12
37 -13 29 -13 -92z"/>
<path d="M8133 101 c-18 -22 -60 -53 -94 -70 l-62 -31 96 0 97 0 0 70 c0 39
-1 70 -2 70 -2 0 -18 -18 -35 -39z"/>
</g>
</svg>
